<svg width="47" height="44" viewBox="0 0 47 44" fill="none" xmlns="http://www.w3.org/2000/svg">
<path d="M16.4306 37.5721H41.1382C42.5305 37.5721 43.6711 36.6113 43.779 35.3885C43.7893 35.2601 43.7739 35.1316 43.7533 35.0032L38.0607 5.04481C38.0607 3.72954 36.8738 2.66602 35.4096 2.66602H10.702C9.24801 2.66602 8.07145 3.71412 8.0509 5.01398C8.0509 5.03453 8.0509 5.05508 8.05604 5.07563L13.7795 35.1933C13.7795 36.5034 14.9664 37.5721 16.4306 37.5721Z" fill="#A4A4A4"/>
<path d="M28.2732 44.0001C28.1704 44.0001 28.0676 43.9796 27.97 43.9385C26.8089 43.4401 25.7916 43.3476 25.7813 43.3425C25.5399 43.3219 25.3189 43.1883 25.1905 42.9777C25.062 42.7722 25.0415 42.5153 25.1288 42.2892C25.8533 40.4756 26.2797 34.8446 26.3825 32.8306C26.403 32.4041 26.7626 32.0753 27.1891 32.101C27.6155 32.1216 27.9392 32.4864 27.9186 32.9077C27.9032 33.18 27.6001 39.0113 26.8397 41.9604C27.3124 42.0683 27.9186 42.2379 28.5711 42.5153C28.9616 42.6848 29.1414 43.137 28.977 43.5274C28.8589 43.8254 28.5711 44.0001 28.2732 44.0001Z" fill="#666677"/>
<path d="M15.2131 43.8153C14.9048 43.8153 14.6119 43.6303 14.4938 43.3221C14.3396 42.9265 14.5349 42.4795 14.9305 42.3253C15.4802 42.1147 16.2355 42.0736 16.8315 42.0787C16.518 38.436 16.3588 33.0928 16.3536 32.8461C16.3434 32.4197 16.6773 32.0652 17.1038 32.0549C17.5251 32.0446 17.8847 32.3786 17.895 32.805C17.895 32.8718 18.0851 39.3043 18.4499 42.8237C18.4755 43.0549 18.3933 43.2861 18.2238 43.4505C18.0594 43.6149 17.8282 43.6971 17.597 43.6663C17.037 43.6046 15.9683 43.5738 15.4905 43.7588C15.398 43.7947 15.3055 43.8153 15.2131 43.8153Z" fill="#666677"/>
<path d="M6.92065 16.4927C5.98557 16.4927 4.49562 16.2821 3.12383 15.1877C1.12523 13.595 0.0771252 10.7178 5.84915e-05 6.64872C-0.00507929 6.22229 0.328876 5.87292 0.755312 5.86264C1.17661 5.83695 1.53112 6.19146 1.54139 6.6179C1.60818 10.2092 2.46105 12.6856 4.08459 13.9803C5.69786 15.2699 7.52177 14.9103 7.54232 14.9051C7.95334 14.8178 8.3695 15.085 8.45171 15.5011C8.53391 15.9173 8.27188 16.3283 7.85572 16.4105C7.81976 16.4259 7.46011 16.4927 6.92065 16.4927Z" fill="#666677"/>
<path d="M45.6338 25.7347C45.2125 25.7347 44.8734 25.4008 44.8631 24.9795C44.7963 21.4036 43.9486 18.9323 42.3405 17.6324C40.7426 16.3429 38.9341 16.6768 38.8571 16.6922C38.446 16.7744 38.035 16.5073 37.9528 16.0911C37.8706 15.675 38.1326 15.2691 38.5488 15.1869C38.6515 15.1663 41.1074 14.6782 43.2807 16.4148C45.2793 18.0075 46.3274 20.8847 46.4045 24.9538C46.4096 25.3802 46.0756 25.7296 45.6492 25.7399C45.6389 25.7347 45.6389 25.7347 45.6338 25.7347Z" fill="#666677"/>
<path d="M8.60066 0.770508H38.1634C39.8075 0.770508 41.1536 2.26046 41.1536 4.08438V4.49026C41.1536 6.31417 40.2597 7.80413 38.6156 7.80413V33.4725C38.6156 34.8391 37.6137 35.9489 36.3806 35.9489H10.3835C9.1504 35.9489 8.14854 34.8391 8.14854 33.4725V7.80413C6.50445 7.80413 5.61047 6.31417 5.61047 4.49026V4.08438C5.61047 2.26046 6.95657 0.770508 8.60066 0.770508Z" fill="#F6F6F6"/>
<path d="M36.3807 36.7197H10.3835C8.72914 36.7197 7.37791 35.2606 7.37791 33.4726V8.48247C5.85199 8.09714 4.83984 6.56608 4.83984 4.49042V4.08453C4.83984 1.83419 6.52504 0 8.6007 0H38.1635C40.2391 0 41.9243 1.83419 41.9243 4.08453V4.49042C41.9243 6.56608 40.9122 8.09714 39.3863 8.48247V33.4726C39.3863 35.2657 38.035 36.7197 36.3807 36.7197ZM8.6007 1.54133C7.37791 1.54133 6.38118 2.68192 6.38118 4.08453V4.49042C6.38118 5.66183 6.84358 7.03362 8.14857 7.03362C8.57501 7.03362 8.91924 7.37785 8.91924 7.80429V33.4726C8.91924 34.4128 9.57688 35.1784 10.3835 35.1784H36.3807C37.1873 35.1784 37.8449 34.4128 37.8449 33.4726V7.80429C37.8449 7.37785 38.1892 7.03362 38.6156 7.03362C39.9206 7.03362 40.383 5.66183 40.383 4.49042V4.08453C40.383 2.68192 39.3863 1.54133 38.1635 1.54133H8.6007Z" fill="#666677"/>
<path d="M19.8165 13.3631C17.4531 13.3631 15.5367 11.5237 15.5367 9.25797C15.5367 8.83154 15.881 8.4873 16.3074 8.4873H23.3308C23.7572 8.4873 24.1014 8.83154 24.1014 9.25797C24.1014 11.5237 22.1799 13.3631 19.8165 13.3631ZM17.2065 10.0338C17.5559 11.0716 18.5989 11.8269 19.8217 11.8269C21.0444 11.8269 22.0823 11.0716 22.4368 10.0338H17.2065Z" fill="#666677"/>
<path d="M22.632 6.28374C22.9158 6.28374 23.1458 5.9157 23.1458 5.46169C23.1458 5.00769 22.9158 4.63965 22.632 4.63965C22.3483 4.63965 22.1182 5.00769 22.1182 5.46169C22.1182 5.9157 22.3483 6.28374 22.632 6.28374Z" fill="#666677"/>
<path d="M22.632 6.79762C23.1995 6.79762 23.6595 6.19955 23.6595 5.4618C23.6595 4.72404 23.1995 4.12598 22.632 4.12598C22.0645 4.12598 21.6044 4.72404 21.6044 5.4618C21.6044 6.19955 22.0645 6.79762 22.632 6.79762Z" fill="#666677"/>
<path d="M16.518 6.29839C16.8017 6.29839 17.0318 5.93034 17.0318 5.47634C17.0318 5.02234 16.8017 4.6543 16.518 4.6543C16.2342 4.6543 16.0042 5.02234 16.0042 5.47634C16.0042 5.93034 16.2342 6.29839 16.518 6.29839Z" fill="#666677"/>
<path d="M16.518 6.81227C17.0855 6.81227 17.5456 6.2142 17.5456 5.47645C17.5456 4.73869 17.0855 4.14062 16.518 4.14062C15.9505 4.14062 15.4905 4.73869 15.4905 5.47645C15.4905 6.2142 15.9505 6.81227 16.518 6.81227Z" fill="#666677"/>
</svg>
