<svg width="215" height="134" viewBox="0 0 215 134" fill="none" xmlns="http://www.w3.org/2000/svg">
<g clip-path="url(#clip0_3651_24198)">
<path d="M159.942 56.8382C159.942 56.8382 181.469 51.3979 186.921 28.8284C192.373 6.25878 211.999 2.99463 211.999 2.99463" stroke="#BCBCBC" stroke-width="6" stroke-miterlimit="10" stroke-linecap="round" stroke-linejoin="round"/>
<path d="M168.115 132.762H20.0665C16.7555 132.762 14.0646 130.077 14.0646 126.773V66.8804C14.0646 63.5763 16.7555 60.8911 20.0665 60.8911H168.115C171.426 60.8911 174.117 63.5763 174.117 66.8804V126.773C174.117 130.087 171.426 132.762 168.115 132.762Z" fill="#E7E7E7"/>
<path d="M43.7042 82.8016C65.0072 82.8016 82.2768 70.4712 82.2768 55.2609C82.2768 40.0506 65.0072 27.7202 43.7042 27.7202C22.4012 27.7202 5.13165 40.0506 5.13165 55.2609C5.13165 70.4712 22.4012 82.8016 43.7042 82.8016Z" fill="#E7E7E7"/>
<path d="M94.0906 82.8016C115.394 82.8016 132.663 70.4712 132.663 55.2609C132.663 40.0506 115.394 27.7202 94.0906 27.7202C72.7876 27.7202 55.5181 40.0506 55.5181 55.2609C55.5181 70.4712 72.7876 82.8016 94.0906 82.8016Z" fill="#E7E7E7"/>
<path d="M144.467 82.8016C165.77 82.8016 183.04 70.4712 183.04 55.2609C183.04 40.0506 165.77 27.7202 144.467 27.7202C123.164 27.7202 105.894 40.0506 105.894 55.2609C105.894 70.4712 123.164 82.8016 144.467 82.8016Z" fill="#E7E7E7"/>
<path d="M56.4584 35.257C56.4584 35.257 66.8117 25.9537 69.7727 23.7377C72.7337 21.5216 74.3442 20.733 75.9047 24.2468C77.4652 27.7605 78.3055 36.1554 77.2551 41.3062" stroke="#BCBCBC" stroke-width="3" stroke-miterlimit="10" stroke-linecap="round" stroke-linejoin="round"/>
<path d="M31.5203 34.4086C31.5203 34.4086 24.9081 24.9156 19.3863 20.763C13.8645 16.6105 12.204 21.7014 12.304 24.1769C12.404 26.6525 10.5334 34.199 11.7838 41.3861" stroke="#BCBCBC" stroke-width="3" stroke-miterlimit="10" stroke-linecap="round" stroke-linejoin="round"/>
<path d="M55.8382 71.4523C55.8382 71.4523 63.4107 69.416 68.3623 71.9015" stroke="#BCBCBC" stroke-width="3" stroke-miterlimit="10" stroke-linecap="round" stroke-linejoin="round"/>
<path d="M55.8882 65.6129C55.8882 65.6129 63.0005 62.2989 68.3022 63.896" stroke="#BCBCBC" stroke-width="3" stroke-miterlimit="10" stroke-linecap="round" stroke-linejoin="round"/>
<path d="M14.8442 66.002C14.8442 66.002 10.6729 64.1353 1.89001 63.2769" stroke="#BCBCBC" stroke-width="3" stroke-miterlimit="10" stroke-linecap="round" stroke-linejoin="round"/>
<path d="M14.7343 71.4522C14.7343 71.4522 10.2829 70.3841 1.5 71.1428" stroke="#BCBCBC" stroke-width="3" stroke-miterlimit="10" stroke-linecap="round" stroke-linejoin="round"/>
<path d="M13.8839 75.9941C13.8839 75.9941 9.41249 76.9724 1.84003 81.4743" stroke="#BCBCBC" stroke-width="3" stroke-miterlimit="10" stroke-linecap="round" stroke-linejoin="round"/>
<path d="M67.8121 83.281C67.8121 83.281 64.401 80.2364 56.3083 76.7427" stroke="#BCBCBC" stroke-width="3" stroke-miterlimit="10" stroke-linecap="round" stroke-linejoin="round"/>
<path d="M26.0685 66.6406C26.0685 66.6406 22.4173 69.7251 25.5283 73.0691C28.6493 76.4131 33.5309 73.4285 35.3715 69.8848C35.3715 69.8848 37.0521 75.5746 43.4741 76.4131C49.8862 77.2516 49.196 70.7233 47.7956 69.0663" stroke="#BCBCBC" stroke-width="3" stroke-miterlimit="10" stroke-linecap="round" stroke-linejoin="round"/>
<path d="M24.8381 58.0861C26.0922 58.0861 27.1088 57.0716 27.1088 55.8201C27.1088 54.5687 26.0922 53.5542 24.8381 53.5542C23.584 53.5542 22.5673 54.5687 22.5673 55.8201C22.5673 57.0716 23.584 58.0861 24.8381 58.0861Z" fill="#BCBCBC"/>
<path d="M48.5058 58.6354C49.7599 58.6354 50.7765 57.6209 50.7765 56.3695C50.7765 55.118 49.7599 54.1035 48.5058 54.1035C47.2517 54.1035 46.235 55.118 46.235 56.3695C46.235 57.6209 47.2517 58.6354 48.5058 58.6354Z" fill="#BCBCBC"/>
<path d="M68.2822 114.405C68.2822 114.405 43.7542 114.675 44.0243 124.467C44.2944 134.26 52.4771 132.353 52.4771 132.353" stroke="#BCBCBC" stroke-width="3" stroke-miterlimit="10" stroke-linecap="round" stroke-linejoin="round"/>
<path d="M151.859 114.405C151.859 114.405 127.331 114.675 127.602 124.467C127.872 134.26 136.054 132.353 136.054 132.353" stroke="#BCBCBC" stroke-width="3" stroke-miterlimit="10" stroke-linecap="round" stroke-linejoin="round"/>
<path d="M18.1359 113.227C18.1359 113.227 33.3909 113.497 33.1208 123.289C32.8507 133.081 24.6681 131.175 24.6681 131.175" stroke="#BCBCBC" stroke-width="3" stroke-miterlimit="10" stroke-linecap="round" stroke-linejoin="round"/>
</g>
<defs>
<clipPath id="clip0_3651_24198">
<rect width="215" height="134" fill="white"/>
</clipPath>
</defs>
</svg>
