<svg width="287" height="208" viewBox="0 0 287 208" fill="none" xmlns="http://www.w3.org/2000/svg">
<path fill-rule="evenodd" clip-rule="evenodd" d="M200.921 48.0338L196.155 52.6555L201.319 54.0088L205.155 48.0088L200.921 48.0338Z" fill="#DFA3FF"/>
<path fill-rule="evenodd" clip-rule="evenodd" d="M105.765 19.0088L117.155 8.00879L107.713 10.3984L98.1553 17.9014L105.765 19.0088Z" fill="#F367DF"/>
<path fill-rule="evenodd" clip-rule="evenodd" d="M100.73 64.0088H107.155L99.2494 70.0088L94.1553 68.6921L100.73 64.0088Z" fill="#1EC5D2"/>
<path fill-rule="evenodd" clip-rule="evenodd" d="M54.5802 32.0088H48.1553L56.0612 39.0088L61.1553 37.4727L54.5802 32.0088Z" fill="#4A4BF7"/>
<path fill-rule="evenodd" clip-rule="evenodd" d="M67.3894 46.038L72.1553 51.4299L66.9918 53.0088L63.1553 46.0088L67.3894 46.038Z" fill="#35BFFF"/>
<path opacity="0.291806" fill-rule="evenodd" clip-rule="evenodd" d="M180.163 3.36163L188.7 6.63102L174.879 11.2246L168.838 6.74158L180.163 3.36163Z" fill="#35BFFF"/>
<path fill-rule="evenodd" clip-rule="evenodd" d="M278.345 40.0088L274.155 41.7229L281.172 47.0088L286.155 45.5908L278.345 40.0088Z" fill="#DFA3FF"/>
<path fill-rule="evenodd" clip-rule="evenodd" d="M244.834 61.8079L238.95 54.2873L220.506 57.0384L226.899 65.8175L244.834 61.8079Z" fill="#5179FF"/>
<path fill-rule="evenodd" clip-rule="evenodd" d="M5.9118 63.8227L1.37109 69.3584L11.7193 65.2236L13.7028 58.5325L5.9118 63.8227Z" fill="#BB77FE"/>
<path d="M207.441 129.771C207.441 129.771 228.968 124.338 234.42 101.799C239.872 79.2598 259.498 76 259.498 76" stroke="#42210B" stroke-width="6" stroke-miterlimit="10" stroke-linecap="round" stroke-linejoin="round"/>
<path d="M215.615 205.594H67.5664C64.2553 205.594 61.5645 202.912 61.5645 199.613V139.8C61.5645 136.5 64.2553 133.819 67.5664 133.819H215.615C218.926 133.819 221.617 136.5 221.617 139.8V199.613C221.617 202.922 218.926 205.594 215.615 205.594Z" fill="#E8D5BA"/>
<path d="M91.2044 155.7C112.507 155.7 129.777 143.386 129.777 128.196C129.777 113.006 112.507 100.692 91.2044 100.692C69.9014 100.692 52.6318 113.006 52.6318 128.196C52.6318 143.386 69.9014 155.7 91.2044 155.7Z" fill="#E8D5BA"/>
<path d="M141.591 155.7C162.894 155.7 180.164 143.386 180.164 128.196C180.164 113.006 162.894 100.692 141.591 100.692C120.288 100.692 103.019 113.006 103.019 128.196C103.019 143.386 120.288 155.7 141.591 155.7Z" fill="#E8D5BA"/>
<path d="M191.967 155.7C213.27 155.7 230.54 143.386 230.54 128.196C230.54 113.006 213.27 100.692 191.967 100.692C170.664 100.692 153.395 113.006 153.395 128.196C153.395 143.386 170.664 155.7 191.967 155.7Z" fill="#E8D5BA"/>
<path d="M103.958 108.219C103.958 108.219 114.311 98.9282 117.272 96.7151C120.233 94.502 121.844 93.7145 123.404 97.2235C124.965 100.733 125.805 109.116 124.755 114.26" stroke="#42210B" stroke-width="3" stroke-miterlimit="10" stroke-linecap="round" stroke-linejoin="round"/>
<path d="M79.0202 107.372C79.0202 107.372 72.408 97.8913 66.8862 93.7443C61.3644 89.5973 59.7039 94.6814 59.8039 97.1536C59.904 99.6259 58.0334 107.162 59.2838 114.34" stroke="#42210B" stroke-width="3" stroke-miterlimit="10" stroke-linecap="round" stroke-linejoin="round"/>
<path d="M103.338 144.366C103.338 144.366 110.91 142.332 115.862 144.814" stroke="#42210B" stroke-width="3" stroke-miterlimit="10" stroke-linecap="round" stroke-linejoin="round"/>
<path d="M103.389 138.534C103.389 138.534 110.501 135.224 115.803 136.819" stroke="#42210B" stroke-width="3" stroke-miterlimit="10" stroke-linecap="round" stroke-linejoin="round"/>
<path d="M62.3439 138.923C62.3439 138.923 58.1725 137.058 49.3896 136.201" stroke="#42210B" stroke-width="3" stroke-miterlimit="10" stroke-linecap="round" stroke-linejoin="round"/>
<path d="M62.2343 144.366C62.2343 144.366 57.7829 143.299 49 144.056" stroke="#42210B" stroke-width="3" stroke-miterlimit="10" stroke-linecap="round" stroke-linejoin="round"/>
<path d="M61.3838 148.901C61.3838 148.901 56.9123 149.878 49.3398 154.374" stroke="#42210B" stroke-width="3" stroke-miterlimit="10" stroke-linecap="round" stroke-linejoin="round"/>
<path d="M115.312 156.178C115.312 156.178 111.901 153.138 103.809 149.649" stroke="#42210B" stroke-width="3" stroke-miterlimit="10" stroke-linecap="round" stroke-linejoin="round"/>
<path d="M73.5689 139.561C73.5689 139.561 69.9177 142.641 73.0287 145.98C76.1497 149.32 81.0313 146.339 82.8719 142.8C82.8719 142.8 84.5525 148.483 90.9746 149.32C97.3867 150.157 96.6964 143.638 95.296 141.983" stroke="#42210B" stroke-width="3" stroke-miterlimit="10" stroke-linecap="round" stroke-linejoin="round"/>
<path d="M72.3381 131.018C73.5922 131.018 74.6089 130.004 74.6089 128.755C74.6089 127.505 73.5922 126.492 72.3381 126.492C71.084 126.492 70.0674 127.505 70.0674 128.755C70.0674 130.004 71.084 131.018 72.3381 131.018Z" fill="#42210B"/>
<path d="M96.0061 131.566C97.2602 131.566 98.2768 130.553 98.2768 129.303C98.2768 128.053 97.2602 127.04 96.0061 127.04C94.752 127.04 93.7354 128.053 93.7354 129.303C93.7354 130.553 94.752 131.566 96.0061 131.566Z" fill="#42210B"/>
<path d="M115.782 187.44C115.782 187.44 91.2536 187.71 91.5237 197.489C91.7938 207.268 99.9765 205.364 99.9765 205.364" stroke="#42210B" stroke-width="3" stroke-miterlimit="10" stroke-linecap="round" stroke-linejoin="round"/>
<path d="M199.36 187.44C199.36 187.44 174.832 187.71 175.102 197.489C175.372 207.268 183.555 205.364 183.555 205.364" stroke="#42210B" stroke-width="3" stroke-miterlimit="10" stroke-linecap="round" stroke-linejoin="round"/>
<path d="M65.6357 186.264C65.6357 186.264 80.8907 186.533 80.6206 196.313C80.3505 206.092 72.1679 204.188 72.1679 204.188" stroke="#42210B" stroke-width="3" stroke-miterlimit="10" stroke-linecap="round" stroke-linejoin="round"/>
</svg>
