<svg width="14" height="18" viewBox="0 0 14 18" fill="none" xmlns="http://www.w3.org/2000/svg">
<path d="M11.6856 9.29116C11.6609 7.8678 12.2827 6.75365 13.5411 5.96344C12.8305 4.93274 11.7843 4.35848 10.3976 4.22597C9.90412 4.18179 9.27247 4.29468 8.50758 4.57444C7.68347 4.87875 7.2196 5.0309 7.11597 5.0309C6.89884 5.0309 6.47938 4.90329 5.86253 4.64316C5.24568 4.38793 4.71766 4.25541 4.2834 4.25541C3.54811 4.27505 2.86218 4.47628 2.23546 4.86893C1.60381 5.26158 1.10046 5.79657 0.725414 6.47389C0.241805 7.31318 0 8.31444 0 9.48257C0 10.5329 0.177652 11.5833 0.532957 12.6385C0.863588 13.6447 1.28798 14.5232 1.80613 15.284C2.26507 15.9711 2.66479 16.4767 3.01022 16.7908C3.5037 17.2816 4.00705 17.5172 4.5252 17.4926C4.85583 17.4828 5.29009 17.3601 5.83292 17.1245C6.33627 16.9037 6.83962 16.7908 7.3479 16.7908C7.81671 16.7908 8.30525 16.8988 8.8086 17.1245C9.37117 17.3601 9.8301 17.473 10.1854 17.473C10.7134 17.4485 11.2069 17.2227 11.6658 16.7908C11.8238 16.6484 12.0014 16.457 12.1889 16.2116C12.3765 15.9662 12.5886 15.6717 12.8156 15.3331C12.9736 15.0877 13.1315 14.8226 13.2894 14.5429C13.4424 14.2631 13.5855 13.9637 13.7088 13.6496C13.7631 13.522 13.8174 13.3894 13.8618 13.2569C13.9062 13.1244 13.9556 12.987 14 12.8446C13.5756 12.6581 13.1907 12.3931 12.8502 12.0544C12.0804 11.3133 11.7004 10.3906 11.6856 9.29116Z" fill="white"/>
<path d="M9.51911 2.80745C10.1261 2.04669 10.432 1.23194 10.432 0.353385C10.432 0.294488 10.432 0.23559 10.432 0.176693C10.432 0.117795 10.4271 0.0588975 10.4172 0C9.99285 0.0245406 9.54379 0.15706 9.07005 0.402467C8.59631 0.647873 8.20152 0.957085 7.89063 1.3301C7.27378 2.06632 6.96289 2.85653 6.96289 3.69582C6.96289 3.75472 6.96289 3.80871 6.96289 3.8627C6.96289 3.91669 6.96782 3.97068 6.97769 4.02957C7.93011 4.12774 8.77396 3.72036 9.51911 2.80745Z" fill="white"/>
</svg>
