<svg width="24" height="24" viewBox="0 0 24 24" fill="none" xmlns="http://www.w3.org/2000/svg">
<path d="M16.8211 11.5597C16.7957 10.0952 17.4355 8.94891 18.7302 8.13586C17.999 7.07538 16.9226 6.48453 15.4959 6.34818C14.9882 6.30273 14.3382 6.41888 13.5513 6.70673C12.7033 7.01983 12.2261 7.17637 12.1194 7.17637C11.896 7.17637 11.4645 7.04508 10.8298 6.77743C10.1951 6.51483 9.65183 6.37848 9.20502 6.37848C8.44849 6.39868 7.74273 6.60573 7.0979 7.00973C6.448 7.41372 5.93011 7.96417 5.54423 8.66106C5.04664 9.5246 4.79785 10.5548 4.79785 11.7567C4.79785 12.8374 4.98064 13.9181 5.34621 15.0038C5.68639 16.039 6.12305 16.943 6.65617 17.7257C7.12837 18.4327 7.53964 18.9529 7.89505 19.2761C8.40279 19.781 8.92068 20.0234 9.45381 19.9982C9.79399 19.9881 10.2408 19.8618 10.7993 19.6194C11.3172 19.3922 11.8351 19.2761 12.3581 19.2761C12.8404 19.2761 13.3431 19.3872 13.861 19.6194C14.4398 19.8618 14.912 19.978 15.2776 19.978C15.8208 19.9527 16.3286 19.7204 16.8008 19.2761C16.9633 19.1296 17.146 18.9327 17.339 18.6802C17.5319 18.4277 17.7502 18.1247 17.9838 17.7762C18.1463 17.5237 18.3088 17.251 18.4712 16.9632C18.6286 16.6753 18.7759 16.3673 18.9028 16.0441C18.9587 15.9128 19.0145 15.7764 19.0602 15.6401C19.1059 15.5037 19.1567 15.3623 19.2024 15.2159C18.7657 15.024 18.3697 14.7513 18.0194 14.4029C17.2273 13.6403 16.8363 12.6909 16.8211 11.5597Z" fill="white"/>
<path d="M14.592 4.88857C15.2165 4.10583 15.5313 3.26754 15.5313 2.3636C15.5313 2.303 15.5313 2.2424 15.5313 2.1818C15.5313 2.1212 15.5262 2.0606 15.5161 2C15.0794 2.02525 14.6174 2.1616 14.13 2.4141C13.6425 2.66659 13.2363 2.98474 12.9165 3.36854C12.2818 4.12603 11.9619 4.93907 11.9619 5.80261C11.9619 5.86321 11.9619 5.91876 11.9619 5.97431C11.9619 6.02986 11.967 6.08541 11.9771 6.14601C12.9571 6.24701 13.8253 5.82786 14.592 4.88857Z" fill="white"/>
</svg>
