<svg width="32" height="32" viewBox="0 0 32 32" fill="none" xmlns="http://www.w3.org/2000/svg">
<path d="M30 7.36641C30 8.7154 29.1815 9.87685 28.0006 10.4122V23.778C28.0006 24.4556 27.4351 25 26.7384 25H11.2616C10.5649 25 9.99943 24.4525 9.99943 23.778V10.4092C8.81852 9.87685 8 8.71237 8 7.36641C8 6.44088 8.38739 5.597 9.01846 4.98603C9.63391 4.39018 10.4805 4.01815 11.4178 4H26.526C28.4473 4 30 5.50929 30 7.36641Z" fill="#4579FF" stroke="#4579FF" stroke-width="2" stroke-miterlimit="10" stroke-linecap="round" stroke-linejoin="round"/>
<path d="M25 10.3664C25 11.7154 24.1815 12.8769 23.0006 13.4122V26.778C23.0006 27.4556 22.4351 28 21.7384 28H6.26157C5.5649 28 4.99943 27.4525 4.99943 26.778V13.4092C3.81852 12.8769 3 11.7124 3 10.3664C3 9.44088 3.38739 8.597 4.01846 7.98603C4.63391 7.39018 5.48055 7.01815 6.41778 7H21.526C23.4473 7 25 8.50929 25 10.3664Z" fill="white" stroke="#4579FF" stroke-width="2" stroke-miterlimit="10" stroke-linecap="round" stroke-linejoin="round"/>
</svg>
